<?xml version="1.0" standalone="no"?>
<!DOCTYPE svg PUBLIC "-//W3C//DTD SVG 20010904//EN"
 "http://www.w3.org/TR/2001/REC-SVG-20010904/DTD/svg10.dtd">
<svg version="1.0" xmlns="http://www.w3.org/2000/svg"
 width="20" height="20" viewBox="0 0 165.000000 165.000000"
 preserveAspectRatio="xMidYMid meet">

<g transform="translate(0.000000,165.000000) scale(0.100000,-0.100000)"
fill="#000000" stroke="none">
<path d="M740 1644 c-14 -2 -52 -9 -85 -15 -138 -25 -298 -110 -408 -217 -102
-99 -188 -253 -224 -399 -22 -91 -22 -285 0 -376 79 -322 337 -565 661 -622
111 -19 170 -19 281 0 273 48 509 233 616 485 47 111 62 191 62 325 0 184 -37
307 -138 460 -111 168 -291 294 -487 340 -65 15 -234 27 -278 19z m266 -84
c535 -135 753 -778 410 -1206 -263 -328 -735 -380 -1065 -117 -274 217 -360
605 -206 920 97 197 281 347 495 402 104 27 261 28 366 1z"/>
<path d="M796 1354 c-3 -9 -6 -134 -6 -279 0 -198 3 -265 13 -272 6 -5 93 -42
191 -81 186 -74 211 -78 204 -29 -2 15 -40 34 -170 86 l-168 66 0 247 c0 135
-3 253 -6 262 -3 9 -16 16 -29 16 -13 0 -26 -7 -29 -16z"/>
</g>
</svg>
