<?xml version="1.0" standalone="no"?>
<!DOCTYPE svg PUBLIC "-//W3C//DTD SVG 20010904//EN"
 "http://www.w3.org/TR/2001/REC-SVG-20010904/DTD/svg10.dtd">
<svg version="1.0" xmlns="http://www.w3.org/2000/svg"
 width="20" height="20" viewBox="0 0 200.000000 200.000000"
 preserveAspectRatio="xMidYMid meet">

<g transform="translate(0.000000,200.000000) scale(0.100000,-0.100000)"
fill="#000000" stroke="none">
<path d="M1357 1882 c-10 -10 -17 -34 -17 -52 0 -30 16 -49 137 -172 l137
-138 -715 0 c-801 0 -759 4 -759 -69 0 -76 -50 -71 755 -71 l719 0 -137 -139
c-124 -126 -137 -142 -137 -174 0 -39 36 -77 73 -77 14 0 95 73 234 212 198
197 213 215 213 248 0 33 -15 51 -208 243 -192 191 -211 207 -243 207 -22 0
-42 -7 -52 -18z"/>
<path d="M351 826 c-189 -189 -214 -218 -214 -246 0 -28 24 -56 211 -242 182
-183 214 -211 241 -211 43 0 71 28 71 71 0 32 -13 49 -137 174 l-137 138 717
0 c704 0 717 0 737 20 26 26 26 74 0 100 -20 20 -33 20 -735 20 -393 0 -715 3
-715 8 0 4 61 68 135 142 117 117 135 139 135 167 0 35 -38 73 -73 73 -14 0
-95 -74 -236 -214z"/>
</g>
</svg>
