<?xml version="1.0" standalone="no"?>
<!DOCTYPE svg PUBLIC "-//W3C//DTD SVG 20010904//EN"
 "http://www.w3.org/TR/2001/REC-SVG-20010904/DTD/svg10.dtd">
<svg version="1.0" xmlns="http://www.w3.org/2000/svg"
 width="20" height="20" viewBox="0 0 200.000000 200.000000"
 preserveAspectRatio="xMidYMid meet">

<g transform="translate(0.000000,200.000000) scale(0.100000,-0.100000)"
fill="#fff" stroke="none">
<path d="M107 1893 c-4 -3 -7 -155 -7 -338 0 -343 1 -355 42 -355 34 0 38 33
38 329 l0 291 291 0 c296 0 329 4 329 38 0 41 -12 42 -355 42 -183 0 -335 -3
-338 -7z"/>
<path d="M1212 1888 c-18 -18 -14 -46 7 -58 12 -6 129 -10 310 -10 l291 0 0
-291 c0 -181 4 -298 10 -310 12 -21 40 -25 58 -7 17 17 17 659 0 676 -17 17
-659 17 -676 0z"/>
<path d="M112 788 c-17 -17 -17 -659 0 -676 17 -17 659 -17 676 0 18 18 14 46
-7 58 -12 6 -129 10 -310 10 l-291 0 0 291 c0 181 -4 298 -10 310 -12 21 -40
25 -58 7z"/>
<path d="M1830 781 c-6 -12 -10 -129 -10 -310 l0 -291 -291 0 c-181 0 -298 -4
-310 -10 -21 -12 -25 -40 -7 -58 17 -17 659 -17 676 0 17 17 17 659 0 676 -18
18 -46 14 -58 -7z"/>
</g>
</svg>
