<?xml version="1.0" standalone="no"?>
<!DOCTYPE svg PUBLIC "-//W3C//DTD SVG 20010904//EN"
 "http://www.w3.org/TR/2001/REC-SVG-20010904/DTD/svg10.dtd">
<svg version="1.0" xmlns="http://www.w3.org/2000/svg"
 width="20" height="20" viewBox="0 0 512.000000 512.000000"
 preserveAspectRatio="xMidYMid meet">

<g transform="translate(0.000000,512.000000) scale(0.100000,-0.100000)"
fill="#ff0000" stroke="none">
<path d="M795 4201 c-64 -18 -143 -58 -189 -95 l-29 -22 987 -822 c542 -452
990 -822 996 -822 6 0 454 370 996 822 l987 822 -29 23 c-44 37 -134 80 -201
97 -54 14 -246 16 -1759 15 -1577 0 -1703 -2 -1759 -18z"/>
<path d="M398 3788 c-19 -64 -19 -1989 1 -2068 40 -166 153 -307 302 -378 46
-23 111 -45 143 -51 41 -8 585 -11 1720 -11 1403 0 1672 3 1729 15 197 42 369
206 424 406 17 59 18 138 18 1039 0 919 -3 1045 -24 1079 -7 11 -262 -196
-1080 -878 l-1071 -893 -1069 891 c-588 490 -1072 891 -1075 891 -3 0 -11 -19
-18 -42z"/>
</g>
</svg>
