<svg class="svg-icon" style="width: 1em; height: 1em;vertical-align: middle;fill: currentColor;overflow: hidden;" viewBox="0 0 1024 1024" version="1.1" xmlns="http://www.w3.org/2000/svg"><path d="M469.34016 170.65984q17.67424 0 30.0032 12.32896l298.65984 298.65984q12.67712 12.67712 12.67712 30.33088t-12.67712 30.33088l-298.65984 298.65984q-12.32896 12.32896-30.0032 12.32896t-30.16704-12.4928-12.4928-30.16704q0-18.00192 12.32896-30.33088l268.32896-268.32896-268.32896-268.32896q-12.32896-12.32896-12.32896-30.33088 0-18.3296 12.16512-30.49472t30.49472-12.16512zM213.34016 170.65984q17.67424 0 30.0032 12.32896l298.65984 298.65984q12.67712 12.67712 12.67712 30.33088t-12.67712 30.33088l-298.65984 298.65984q-12.32896 12.32896-30.0032 12.32896t-30.16704-12.4928-12.4928-30.16704q0-18.00192 12.32896-30.33088l268.32896-268.32896-268.32896-268.32896q-12.32896-12.32896-12.32896-30.33088 0-18.3296 12.16512-30.49472t30.49472-12.16512z"  /></svg>