<?xml version="1.0" standalone="no"?>
<!DOCTYPE svg PUBLIC "-//W3C//DTD SVG 20010904//EN"
 "http://www.w3.org/TR/2001/REC-SVG-20010904/DTD/svg10.dtd">
<svg version="1.0" xmlns="http://www.w3.org/2000/svg"
 width="20" height="20" viewBox="0 0 200.000000 200.000000"
 preserveAspectRatio="xMidYMid meet">

<g transform="translate(0.000000,200.000000) scale(0.100000,-0.100000)"
fill="#ff0000" stroke="none">
<path d="M627 1699 c-20 -11 -49 -38 -65 -61 -25 -38 -27 -51 -31 -159 l-3
-117 -45 -6 c-61 -8 -109 -40 -133 -87 -18 -35 -20 -59 -20 -297 0 -252 1
-260 23 -292 33 -50 70 -72 126 -78 l51 -5 0 130 c0 127 -1 130 -24 141 -30
14 -39 47 -18 72 17 20 26 20 532 18 l515 -3 9 -27 c8 -22 6 -32 -9 -48 -10
-11 -26 -20 -37 -20 -17 0 -18 -10 -18 -131 l0 -131 60 4 c64 5 98 22 134 72
20 26 21 43 24 291 3 248 2 266 -17 303 -27 53 -74 81 -150 88 l-61 7 0 114
c0 79 -4 122 -14 141 -19 36 -65 78 -99 91 -18 7 -149 11 -360 11 -311 -1
-334 -2 -370 -21z m730 -55 c49 -36 63 -78 63 -186 l0 -98 -415 0 -415 0 0
105 c0 139 17 173 98 194 13 4 163 6 333 6 294 -1 310 -2 336 -21z m-783 -390
c20 -20 20 -43 0 -72 -34 -48 -103 -13 -94 48 5 40 63 55 94 24z m172 -9 c34
-52 -31 -111 -76 -70 -22 20 -26 65 -8 83 21 21 66 14 84 -13z"/>
<path d="M569 901 c-24 -19 -24 -19 -27 -288 -2 -147 -1 -282 3 -300 12 -66
-6 -63 455 -63 461 0 443 -3 455 63 3 18 5 153 3 300 -3 269 -3 269 -27 288
-22 18 -45 19 -431 19 -386 0 -409 -1 -431 -19z m791 -90 c4 -8 5 -24 0 -35
-7 -21 -11 -21 -361 -21 l-354 0 -3 32 c-3 31 -2 32 40 35 24 2 184 3 356 3
257 0 314 -3 322 -14z m-2 -158 c3 -27 -1 -33 -20 -38 -13 -3 -174 -4 -358 -3
l-335 3 -3 23 c-8 54 -21 52 360 50 l353 -3 3 -32z m0 -141 l3 -32 -358 2
c-336 3 -358 4 -361 21 -9 48 -16 47 360 45 l353 -3 3 -33z m-22 -101 c25 -1
37 -33 20 -56 -10 -13 -53 -15 -361 -13 l-350 3 -3 32 c-3 30 -1 32 35 35 30
2 559 1 659 -1z"/>
</g>
</svg>
