<?xml version="1.0" standalone="no"?>
<!DOCTYPE svg PUBLIC "-//W3C//DTD SVG 20010904//EN"
 "http://www.w3.org/TR/2001/REC-SVG-20010904/DTD/svg10.dtd">
<svg version="1.0" xmlns="http://www.w3.org/2000/svg"
 width="20" height="20" viewBox="0 0 237.000000 213.000000"
 preserveAspectRatio="xMidYMid meet">

<g transform="translate(0.000000,213.000000) scale(0.100000,-0.100000)"
fill="#000000" stroke="none">
<path d="M548 2120 c-215 -37 -386 -163 -478 -355 -51 -107 -64 -169 -63 -300
4 -445 314 -911 866 -1298 62 -44 143 -97 181 -120 60 -36 76 -41 131 -41 70
0 89 9 265 128 577 390 909 873 912 1331 2 132 -11 194 -62 300 -65 136 -158
229 -295 295 -107 51 -170 65 -290 64 -81 -1 -114 -6 -174 -27 -95 -33 -213
-105 -293 -178 l-63 -56 -55 50 c-181 166 -388 239 -582 207z m228 -232 c84
-30 173 -94 266 -189 134 -138 152 -138 286 0 145 149 267 213 402 212 120 0
227 -47 306 -133 83 -89 114 -171 114 -299 0 -203 -76 -406 -237 -631 -70 -98
-265 -298 -383 -392 -87 -69 -307 -222 -335 -232 -18 -7 -227 130 -353 231
-312 252 -517 530 -595 810 -28 102 -34 277 -12 346 75 233 321 358 541 277z"/>
</g>
</svg>
