<?xml version="1.0" standalone="no"?>
<!DOCTYPE svg PUBLIC "-//W3C//DTD SVG 20010904//EN"
 "http://www.w3.org/TR/2001/REC-SVG-20010904/DTD/svg10.dtd">
<svg version="1.0" xmlns="http://www.w3.org/2000/svg"
 width="20" height="20" viewBox="0 0 512.000000 512.000000"
 preserveAspectRatio="xMidYMid meet">

<g transform="translate(0.000000,512.000000) scale(0.100000,-0.100000)"
fill="#000000" stroke="none">
<path d="M3527 4724 c-156 -28 -302 -92 -427 -185 -99 -75 -1033 -1014 -1094
-1101 -177 -252 -231 -591 -139 -882 71 -227 242 -457 361 -486 96 -23 191 22
236 111 46 94 31 166 -55 267 -68 78 -122 179 -145 272 -22 87 -15 231 16 320
45 134 67 159 584 676 417 416 500 495 554 523 97 50 182 71 292 71 181 0 301
-49 426 -174 124 -124 174 -246 174 -421 0 -113 -20 -198 -68 -289 -30 -58
-74 -108 -238 -276 -186 -190 -202 -209 -213 -256 -24 -98 20 -193 110 -238
58 -29 100 -32 163 -14 33 9 78 48 229 197 206 203 283 296 339 411 305 625
-62 1356 -741 1475 -103 18 -260 18 -364 -1z"/>
<path d="M2928 3191 c-95 -31 -153 -109 -153 -206 1 -70 15 -101 84 -180 60
-69 114 -169 136 -255 23 -88 16 -250 -15 -337 -44 -126 -78 -165 -658 -744
-503 -502 -564 -559 -627 -591 -95 -49 -175 -68 -287 -68 -178 0 -300 50 -424
174 -124 125 -174 245 -174 424 0 113 19 192 68 287 31 60 76 110 304 341 228
230 270 277 284 318 30 87 -4 184 -84 240 -57 40 -142 48 -204 17 -62 -30
-569 -542 -632 -639 -165 -251 -210 -587 -119 -877 98 -314 354 -570 668 -668
228 -71 501 -59 718 34 169 71 185 85 790 688 319 317 595 601 628 645 222
292 270 671 127 1013 -55 134 -188 315 -263 359 -47 27 -124 38 -167 25z"/>
</g>
</svg>
