<?xml version="1.0" standalone="no"?>
<!DOCTYPE svg PUBLIC "-//W3C//DTD SVG 20010904//EN"
 "http://www.w3.org/TR/2001/REC-SVG-20010904/DTD/svg10.dtd">
<svg version="1.0" xmlns="http://www.w3.org/2000/svg"
 width="20" height="20" viewBox="0 0 148.000000 178.000000"
 preserveAspectRatio="xMidYMid meet">

<g transform="translate(0.000000,178.000000) scale(0.100000,-0.100000)"
fill="#000000" stroke="none">
<path d="M136 1765 c-21 -7 -54 -28 -73 -47 -64 -62 -64 -54 -61 -850 l3 -715
30 -48 c20 -32 45 -56 74 -72 l44 -23 534 0 c593 0 572 -2 635 67 49 56 59
110 56 316 l-3 168 -67 -57 -68 -57 0 -132 c0 -195 62 -175 -553 -175 -494 0
-508 1 -527 20 -20 20 -20 33 -20 733 0 679 1 715 18 730 17 15 68 17 530 17
499 0 513 -1 532 -20 18 -18 20 -34 21 -152 l0 -133 63 -52 c35 -29 67 -53 71
-53 4 0 5 87 3 193 -3 170 -6 197 -24 238 -23 50 -68 89 -123 108 -54 18
-1044 15 -1095 -4z"/>
<path d="M917 1328 c-13 -11 -17 -34 -19 -123 l-3 -110 -230 -5 c-126 -3 -231
-7 -232 -8 -13 -18 -19 -84 -18 -205 2 -125 5 -150 20 -167 16 -18 34 -20 239
-22 l221 -3 3 -104 c3 -110 10 -131 46 -131 13 0 117 83 271 216 138 118 251
219 253 223 4 11 -506 451 -522 451 -7 0 -20 -6 -29 -12z"/>
</g>
</svg>
