<?xml version="1.0" standalone="no"?>
<!DOCTYPE svg PUBLIC "-//W3C//DTD SVG 20010904//EN"
 "http://www.w3.org/TR/2001/REC-SVG-20010904/DTD/svg10.dtd">
<svg version="1.0" xmlns="http://www.w3.org/2000/svg"
 width="20" height="20" viewBox="0 0 188.000000 188.000000"
 preserveAspectRatio="xMidYMid meet">

<g transform="translate(0.000000,188.000000) scale(0.100000,-0.100000)"
fill="#ff0000" stroke="none">
<path d="M395 1675 c-62 -16 -110 -67 -162 -171 -41 -85 -53 -179 -33 -263 18
-75 96 -277 132 -341 80 -142 290 -374 443 -488 82 -61 231 -136 365 -183 82
-29 108 -34 185 -33 207 1 352 115 358 279 2 58 2 59 -38 85 -22 15 -76 46
-119 69 -44 23 -99 56 -122 72 -76 52 -119 35 -195 -76 -33 -47 -89 -86 -113
-79 -78 24 -303 187 -372 270 -49 58 -145 204 -170 256 -24 51 -12 73 75 142
111 89 120 112 73 187 -16 24 -54 91 -87 149 -32 58 -65 113 -73 123 -18 21
-75 22 -147 2z"/>
</g>
</svg>
