<?xml version="1.0" standalone="no"?>
<!DOCTYPE svg PUBLIC "-//W3C//DTD SVG 20010904//EN"
 "http://www.w3.org/TR/2001/REC-SVG-20010904/DTD/svg10.dtd">
<svg version="1.0" xmlns="http://www.w3.org/2000/svg"
 width="20" height="20" viewBox="0 0 400.000000 400.000000"
 preserveAspectRatio="xMidYMid meet">

<g transform="translate(0.000000,400.000000) scale(0.100000,-0.100000)"
fill="#000000" stroke="none">
<path d="M2548 3479 c-383 -56 -666 -427 -618 -811 5 -45 8 -83 6 -85 -7 -7
-244 26 -344 48 -51 11 -153 41 -225 66 -327 111 -598 287 -843 546 -100 106
-102 107 -116 85 -22 -36 -54 -118 -69 -178 -18 -70 -18 -269 0 -340 33 -138
140 -308 249 -397 51 -42 52 -43 24 -43 -43 0 -178 37 -240 65 -30 14 -56 25
-58 25 -3 0 -2 -30 2 -67 28 -306 219 -547 514 -648 l65 -23 -40 -8 c-22 -5
-95 -8 -162 -8 l-122 1 25 -56 c45 -100 76 -145 163 -232 125 -125 243 -186
414 -212 l82 -13 -50 -37 c-144 -105 -369 -202 -565 -244 -94 -20 -146 -25
-287 -26 l-172 -2 37 -23 c87 -54 306 -154 420 -192 507 -166 1094 -138 1547
74 719 338 1189 1050 1212 1838 l6 178 56 42 c75 57 194 178 258 263 29 38 51
70 49 72 -1 1 -38 -11 -81 -28 -75 -29 -269 -79 -309 -79 -12 0 3 16 40 43 65
48 114 99 163 171 36 51 95 175 88 183 -3 2 -29 -9 -58 -25 -73 -41 -217 -97
-316 -123 l-81 -22 -63 52 c-169 138 -391 201 -601 170z"/>
</g>
</svg>
